<svg width="141" height="43" viewBox="0 0 141 43" fill="none" xmlns="http://www.w3.org/2000/svg">
<path d="M3.936 15.6L9.576 29.688L8.136 29.4L13.416 15.6H16.392L8.664 33.816L0.936 15.6H3.936ZM21.1547 33.24C20.0027 33.24 19.0107 33.016 18.1787 32.568C17.3467 32.104 16.7067 31.472 16.2587 30.672C15.8107 29.856 15.5867 28.936 15.5867 27.912C15.5867 26.92 15.8347 26.024 16.3307 25.224C16.8427 24.408 17.5227 23.76 18.3707 23.28C19.2187 22.8 20.1627 22.56 21.2027 22.56C22.5467 22.56 23.6587 22.952 24.5387 23.736C25.4347 24.504 26.0347 25.592 26.3387 27L18.1547 29.832L17.5787 28.44L24.1547 26.04L23.6507 26.376C23.4587 25.864 23.1547 25.424 22.7387 25.056C22.3227 24.672 21.7547 24.48 21.0347 24.48C20.1387 24.48 19.4027 24.792 18.8267 25.416C18.2667 26.024 17.9867 26.808 17.9867 27.768C17.9867 28.792 18.2907 29.616 18.8987 30.24C19.5067 30.864 20.2747 31.176 21.2027 31.176C21.6347 31.176 22.0507 31.104 22.4507 30.96C22.8507 30.8 23.2267 30.592 23.5787 30.336L24.6827 32.136C24.1707 32.472 23.6027 32.744 22.9787 32.952C22.3707 33.144 21.7627 33.24 21.1547 33.24ZM33.9561 37.992C33.1881 37.992 32.5161 37.896 31.9401 37.704C31.3641 37.528 30.8441 37.288 30.3801 36.984C29.9321 36.68 29.5001 36.344 29.0841 35.976L30.5241 34.32C31.0201 34.8 31.5321 35.176 32.0601 35.448C32.6041 35.72 33.2201 35.856 33.9081 35.856C34.9961 35.856 35.8361 35.6 36.4281 35.088C37.0201 34.576 37.3241 33.888 37.3401 33.024V30.408L37.5081 30.864C37.2201 31.536 36.7081 32.104 35.9721 32.568C35.2521 33.016 34.3561 33.24 33.2841 33.24C32.3561 33.24 31.5081 33.008 30.7401 32.544C29.9721 32.08 29.3561 31.448 28.8921 30.648C28.4281 29.848 28.1961 28.944 28.1961 27.936C28.1961 26.896 28.4361 25.976 28.9161 25.176C29.4121 24.36 30.0601 23.72 30.8601 23.256C31.6601 22.792 32.5161 22.56 33.4281 22.56C34.3241 22.56 35.1241 22.728 35.8281 23.064C36.5481 23.4 37.0761 23.832 37.4121 24.36L37.2921 24.768L37.5321 22.968H39.7641V33.072C39.7641 33.984 39.5241 34.808 39.0441 35.544C38.5641 36.296 37.8921 36.888 37.0281 37.32C36.1641 37.768 35.1401 37.992 33.9561 37.992ZM30.6441 27.864C30.6441 28.504 30.7881 29.08 31.0761 29.592C31.3801 30.104 31.7801 30.512 32.2761 30.816C32.7881 31.104 33.3561 31.248 33.9801 31.248C34.8281 31.248 35.5481 31.032 36.1401 30.6C36.7321 30.152 37.1321 29.584 37.3401 28.896V26.832C37.1321 26.144 36.7241 25.592 36.1161 25.176C35.5081 24.744 34.7961 24.528 33.9801 24.528C33.3561 24.528 32.7881 24.672 32.2761 24.96C31.7801 25.248 31.3801 25.64 31.0761 26.136C30.7881 26.632 30.6441 27.208 30.6441 27.864ZM47.7444 33.24C46.8004 33.24 45.9444 33.04 45.1764 32.64C44.4084 32.24 43.8004 31.656 43.3524 30.888C42.9044 30.104 42.6804 29.136 42.6804 27.984C42.6804 26.864 42.9124 25.904 43.3764 25.104C43.8564 24.288 44.4804 23.664 45.2484 23.232C46.0324 22.784 46.8804 22.56 47.7924 22.56C48.7524 22.56 49.5444 22.76 50.1684 23.16C50.7924 23.56 51.2724 24.04 51.6084 24.6L51.4644 24.984L51.7044 22.968H53.9364V33H51.5124V30.456L51.7524 31.056C51.6884 31.184 51.5524 31.368 51.3444 31.608C51.1364 31.848 50.8644 32.096 50.5284 32.352C50.1924 32.592 49.7844 32.8 49.3044 32.976C48.8404 33.152 48.3204 33.24 47.7444 33.24ZM48.3924 31.248C49.1924 31.248 49.8644 31.04 50.4084 30.624C50.9684 30.192 51.3364 29.608 51.5124 28.872V26.808C51.3204 26.152 50.9284 25.608 50.3364 25.176C49.7604 24.744 49.0884 24.528 48.3204 24.528C47.7444 24.528 47.2164 24.672 46.7364 24.96C46.2564 25.232 45.8724 25.624 45.5844 26.136C45.2964 26.632 45.1524 27.208 45.1524 27.864C45.1524 28.504 45.2964 29.08 45.5844 29.592C45.8884 30.104 46.2884 30.512 46.7844 30.816C47.2804 31.104 47.8164 31.248 48.3924 31.248ZM59.9081 22.968L60.1241 25.296L60.0281 24.96C60.3481 24.24 60.8601 23.664 61.5641 23.232C62.2841 22.8 63.1241 22.584 64.0841 22.584C65.0281 22.584 65.8041 22.864 66.4121 23.424C67.0201 23.968 67.3321 24.688 67.3481 25.584V33H64.9241V26.424C64.9081 25.912 64.7561 25.496 64.4681 25.176C64.1801 24.84 63.7321 24.664 63.1241 24.648C62.2761 24.648 61.5641 25 60.9881 25.704C60.4281 26.408 60.1481 27.312 60.1481 28.416V33H57.7241V22.968H59.9081ZM74.847 15.6H85.263V18.024H77.343V23.304H84.255V25.704H77.343V33H74.847V15.6ZM86.3445 27.888C86.3445 26.88 86.5845 25.976 87.0645 25.176C87.5445 24.36 88.2085 23.72 89.0565 23.256C89.9045 22.792 90.8725 22.56 91.9605 22.56C93.0645 22.56 94.0245 22.792 94.8405 23.256C95.6725 23.72 96.3125 24.36 96.7605 25.176C97.2245 25.976 97.4565 26.88 97.4565 27.888C97.4565 28.896 97.2245 29.808 96.7605 30.624C96.2965 31.424 95.6485 32.064 94.8165 32.544C94.0005 33.008 93.0325 33.24 91.9125 33.24C90.8565 33.24 89.9045 33.024 89.0565 32.592C88.2245 32.16 87.5605 31.544 87.0645 30.744C86.5845 29.928 86.3445 28.976 86.3445 27.888ZM88.7925 27.912C88.7925 28.536 88.9285 29.104 89.2005 29.616C89.4725 30.112 89.8405 30.512 90.3045 30.816C90.7845 31.104 91.3125 31.248 91.8885 31.248C92.8005 31.248 93.5445 30.928 94.1205 30.288C94.7125 29.648 95.0085 28.856 95.0085 27.912C95.0085 26.968 94.7125 26.176 94.1205 25.536C93.5445 24.88 92.8005 24.552 91.8885 24.552C91.2965 24.552 90.7685 24.704 90.3045 25.008C89.8405 25.312 89.4725 25.72 89.2005 26.232C88.9285 26.744 88.7925 27.304 88.7925 27.912ZM99.5164 27.888C99.5164 26.88 99.7564 25.976 100.236 25.176C100.716 24.36 101.38 23.72 102.228 23.256C103.076 22.792 104.044 22.56 105.132 22.56C106.236 22.56 107.196 22.792 108.012 23.256C108.844 23.72 109.484 24.36 109.932 25.176C110.396 25.976 110.628 26.88 110.628 27.888C110.628 28.896 110.396 29.808 109.932 30.624C109.468 31.424 108.82 32.064 107.988 32.544C107.172 33.008 106.204 33.24 105.084 33.24C104.028 33.24 103.076 33.024 102.228 32.592C101.396 32.16 100.732 31.544 100.236 30.744C99.7564 29.928 99.5164 28.976 99.5164 27.888ZM101.964 27.912C101.964 28.536 102.1 29.104 102.372 29.616C102.644 30.112 103.012 30.512 103.476 30.816C103.956 31.104 104.484 31.248 105.06 31.248C105.972 31.248 106.716 30.928 107.292 30.288C107.884 29.648 108.18 28.856 108.18 27.912C108.18 26.968 107.884 26.176 107.292 25.536C106.716 24.88 105.972 24.552 105.06 24.552C104.468 24.552 103.94 24.704 103.476 25.008C103.012 25.312 102.644 25.72 102.372 26.232C102.1 26.744 101.964 27.304 101.964 27.912ZM117.656 33.24C116.712 33.24 115.864 33.024 115.112 32.592C114.36 32.144 113.768 31.512 113.336 30.696C112.904 29.88 112.688 28.928 112.688 27.84C112.688 26.72 112.92 25.768 113.384 24.984C113.848 24.2 114.472 23.6 115.256 23.184C116.056 22.768 116.952 22.56 117.944 22.56C118.712 22.56 119.44 22.72 120.128 23.04C120.832 23.344 121.384 23.776 121.784 24.336L121.688 25.176V14.352H124.112V33H121.664V30.6L121.928 31.248C121.448 31.824 120.84 32.304 120.104 32.688C119.384 33.056 118.568 33.24 117.656 33.24ZM118.4 31.2C119.248 31.2 119.952 30.984 120.512 30.552C121.088 30.104 121.472 29.512 121.664 28.776V26.784C121.488 26.112 121.096 25.56 120.488 25.128C119.896 24.696 119.2 24.48 118.4 24.48C117.824 24.48 117.288 24.624 116.792 24.912C116.296 25.184 115.896 25.576 115.592 26.088C115.304 26.584 115.16 27.16 115.16 27.816C115.16 28.44 115.304 29.008 115.592 29.52C115.896 30.032 116.296 30.44 116.792 30.744C117.288 31.048 117.824 31.2 118.4 31.2ZM130.8 33.216C130.064 33.216 129.36 33.088 128.688 32.832C128.016 32.56 127.448 32.176 126.984 31.68L128.016 30.288C128.432 30.688 128.864 30.992 129.312 31.2C129.776 31.408 130.208 31.512 130.608 31.512C131.072 31.512 131.48 31.424 131.832 31.248C132.184 31.056 132.36 30.744 132.36 30.312C132.36 29.96 132.24 29.688 132 29.496C131.776 29.304 131.488 29.144 131.136 29.016C130.784 28.888 130.408 28.768 130.008 28.656C129.176 28.384 128.536 28 128.088 27.504C127.656 26.992 127.44 26.392 127.44 25.704C127.44 25.176 127.568 24.68 127.824 24.216C128.096 23.736 128.504 23.352 129.048 23.064C129.592 22.76 130.264 22.608 131.064 22.608C131.768 22.608 132.4 22.696 132.96 22.872C133.52 23.032 134.04 23.312 134.52 23.712L133.584 25.176C133.296 24.888 132.952 24.672 132.552 24.528C132.168 24.368 131.816 24.28 131.496 24.264C131.064 24.264 130.688 24.368 130.368 24.576C130.048 24.768 129.888 25.032 129.888 25.368C129.888 25.704 130 25.976 130.224 26.184C130.448 26.376 130.736 26.536 131.088 26.664C131.456 26.776 131.824 26.896 132.192 27.024C132.928 27.264 133.536 27.592 134.016 28.008C134.512 28.424 134.76 29.032 134.76 29.832C134.76 30.44 134.616 31 134.328 31.512C134.04 32.024 133.6 32.44 133.008 32.76C132.432 33.064 131.696 33.216 130.8 33.216Z" fill="white"/>
<path d="M138.88 2.15L137.68 2.55C135.623 3.26455 133.427 3.48382 131.27 3.19C129.003 2.83821 126.683 3.15082 124.59 4.09C123.48 4.56245 122.507 5.30492 121.757 6.24981C121.008 7.1947 120.507 8.31201 120.3 9.5C120.089 10.6425 120.111 11.8157 120.363 12.9496C120.616 14.0835 121.094 15.155 121.77 16.1C122.223 16.7332 121.77 16.1 122.333 16.8889L123.59 17.68C124.977 18.4292 126.533 18.8113 128.11 18.79C129.58 18.789 131.036 18.4932 132.39 17.92C140 14.67 139 3.86 139 3.41L138.88 2.15ZM131.61 16.08C129 17.19 125.88 17 124.13 15.63C124.426 14.641 124.832 13.6884 125.34 12.79C125.735 12.1434 126.201 11.543 126.73 11C127.27 10.4512 127.878 9.97396 128.54 9.58C129.907 8.76255 131.423 8.22545 133 8V7C131.186 6.9372 129.383 7.30741 127.74 8.08C126.06 8.89955 124.636 10.1615 123.62 11.73C123.243 12.3291 122.909 12.954 122.62 13.6C122.157 12.4144 122.025 11.1248 122.24 9.87C122.381 8.99154 122.743 8.16338 123.292 7.46357C123.842 6.76376 124.56 6.21534 125.38 5.87C126.576 5.31116 127.88 5.02428 129.2 5.03C129.82 5.03 130.43 5.09 131.07 5.14C133.074 5.3986 135.109 5.27989 137.07 4.79C137 7.55 136.5 14 131.61 16.08Z" fill="white"/>
</svg>
